<svg id="visual" viewBox="0 0 900 600" width="900" height="600" xmlns="http://www.w3.org/2000/svg" xmlns:xlink="http://www.w3.org/1999/xlink" version="1.1"><rect width="900" height="600" fill="#ffffff"></rect><g><g transform="translate(192 157)"><path d="M68.9 -34.9C83.7 -14.1 86.4 18.7 72.9 39.6C59.4 60.4 29.7 69.5 -0.7 69.9C-31.1 70.3 -62.2 62.1 -72.4 43.1C-82.7 24.1 -72 -5.6 -56.4 -26.8C-40.9 -48.1 -20.4 -60.7 3.3 -62.6C27 -64.5 54.1 -55.7 68.9 -34.9Z" stroke="#F00000" fill="none" stroke-width="20"></path></g><g transform="translate(814 1)"><path d="M57 -36.8C67.5 -14.6 65.5 11 53.8 29.2C42.2 47.4 21.1 58.1 -0.7 58.5C-22.4 58.9 -44.9 48.9 -56.3 30.8C-67.6 12.8 -68 -13.3 -56.7 -35.9C-45.5 -58.4 -22.8 -77.4 0.2 -77.6C23.2 -77.7 46.4 -58.9 57 -36.8Z" stroke="#F00000" fill="none" stroke-width="20"></path></g><g transform="translate(288 415)"><path d="M44.1 -25.3C52.3 -11.3 50.6 8.5 41.7 21.9C32.7 35.3 16.3 42.4 -2.5 43.8C-21.3 45.2 -42.6 41.1 -51.1 27.9C-59.6 14.8 -55.3 -7.3 -44.6 -22.7C-33.9 -38.2 -17 -47 0.5 -47.3C18 -47.5 35.9 -39.3 44.1 -25.3Z" stroke="#F00000" fill="none" stroke-width="20"></path></g><g transform="translate(667 500)"><path d="M49 -23.9C61.3 -7 67.5 17.8 58.4 37.6C49.2 57.3 24.6 72 2.4 70.6C-19.8 69.2 -39.5 51.7 -51.2 30.5C-62.8 9.3 -66.4 -15.6 -56.6 -31.1C-46.7 -46.6 -23.3 -52.7 -2.5 -51.3C18.3 -49.8 36.7 -40.8 49 -23.9Z" stroke="#F00000" fill="none" stroke-width="20"></path></g><g transform="translate(640 148)"><path d="M36.3 -22C43.6 -8.4 43.6 8.4 36.3 20.1C29 31.9 14.5 38.7 -0.7 39.1C-15.9 39.5 -31.8 33.5 -41.5 20.4C-51.2 7.2 -54.6 -13.2 -46.7 -27.2C-38.7 -41.2 -19.4 -48.8 -2.4 -47.4C14.5 -46.1 29.1 -35.6 36.3 -22Z" stroke="#F00000" fill="none" stroke-width="20"></path></g><g transform="translate(20 370)"><path d="M53.9 -28.2C65.5 -11.1 67.4 14.4 56.8 30.1C46.2 45.8 23.1 51.7 -0.9 52.2C-24.8 52.7 -49.6 47.8 -58.3 33.2C-67 18.6 -59.5 -5.7 -47.1 -23.3C-34.7 -40.9 -17.3 -51.7 1.9 -52.9C21.2 -54 42.4 -45.3 53.9 -28.2Z" stroke="#F00000" fill="none" stroke-width="20"></path></g><g transform="translate(128 591)"><path d="M35.5 -20.4C41.1 -10.8 37.4 4.3 29.9 17.1C22.4 29.9 11.2 40.5 -1.1 41.1C-13.4 41.8 -26.8 32.5 -32.6 20.6C-38.5 8.8 -36.7 -5.7 -30 -16C-23.3 -26.2 -11.6 -32.3 1.7 -33.2C15 -34.2 29.9 -30.1 35.5 -20.4Z" stroke="#F00000" fill="none" stroke-width="20"></path></g></g></svg>