<svg xmlns="http://www.w3.org/2000/svg" version="1.1" xmlns:xlink="http://www.w3.org/1999/xlink" xmlns:svgjs="http://svgjs.dev/svgjs" width="560" height="1440" preserveAspectRatio="none" viewBox="0 0 560 1440"><g mask="url(&quot;#SvgjsMask3859&quot;)" fill="none"><rect width="560" height="1440" x="0" y="0" fill="rgba(255, 255, 255, 1)"></rect><path d="M180.32 521.19L193.08 522.34 194.76 535.03 207.52 536.17 209.2 548.87 221.96 550.01 223.64 562.71" stroke="rgba(240, 0, 0, 0.5)" stroke-width="2.34" stroke-dasharray="2, 2"></path><rect width="266.56" height="266.56" clip-path="url(&quot;#SvgjsClipPath3860&quot;)" x="172.53" y="953.12" fill="url(&quot;#SvgjsPattern3861&quot;)" transform="rotate(110.4, 305.81, 1086.4)"></rect><rect width="189.12" height="189.12" clip-path="url(&quot;#SvgjsClipPath3862&quot;)" x="179.62" y="592.38" fill="url(&quot;#SvgjsPattern3863&quot;)" transform="rotate(286.76, 274.18, 686.94)"></rect><rect width="358.2" height="358.2" clip-path="url(&quot;#SvgjsClipPath3864&quot;)" x="178.11" y="721.98" fill="url(&quot;#SvgjsPattern3865&quot;)" transform="rotate(247.85, 357.21, 901.08)"></rect><rect width="150.72" height="150.72" clip-path="url(&quot;#SvgjsClipPath3866&quot;)" x="-15.94" y="749.67" fill="url(&quot;#SvgjsPattern3867&quot;)" transform="rotate(321.45, 59.42, 825.03)"></rect><rect width="159.12" height="159.12" clip-path="url(&quot;#SvgjsClipPath3868&quot;)" x="245.16" y="1288.84" fill="url(&quot;#SvgjsPattern3869&quot;)" transform="rotate(20.71, 324.72, 1368.4)"></rect><path d="M136.22 307.19L149.01 306.63 152.36 318.99 165.15 318.44 168.5 330.8 181.3 330.25 184.65 342.61M131.49 313.65L144.29 313.09 147.64 325.45 160.43 324.9 163.78 337.26 176.57 336.7 179.92 349.07" stroke="rgba(240, 0, 0, 0.5)" stroke-width="1" stroke-dasharray="4, 4"></path><path d="M450.04 93.44a5.6 5.6 0 1 0-11.15 1.13 5.6 5.6 0 1 0 11.15-1.13zM434.12 95.06a5.6 5.6 0 1 0-11.14 1.13 5.6 5.6 0 1 0 11.14-1.13zM418.2 96.68a5.6 5.6 0 1 0-11.14 1.14 5.6 5.6 0 1 0 11.14-1.14zM402.28 98.3a5.6 5.6 0 1 0-11.14 1.14 5.6 5.6 0 1 0 11.14-1.14zM480.25 74.27a5.6 5.6 0 1 0-11.14 1.14 5.6 5.6 0 1 0 11.14-1.14zM464.33 75.9a5.6 5.6 0 1 0-11.14 1.13 5.6 5.6 0 1 0 11.14-1.13zM448.41 77.52a5.6 5.6 0 1 0-11.14 1.13 5.6 5.6 0 1 0 11.14-1.13zM432.5 79.14a5.6 5.6 0 1 0-11.15 1.14 5.6 5.6 0 1 0 11.15-1.14z" fill="rgba(240, 0, 0, 0.5)"></path><rect width="365.12" height="365.12" clip-path="url(&quot;#SvgjsClipPath3870&quot;)" x="266.84" y="747.66" fill="url(&quot;#SvgjsPattern3871&quot;)" transform="rotate(200.19, 449.4, 930.22)"></rect><rect width="180" height="180" clip-path="url(&quot;#SvgjsClipPath3872&quot;)" x="456.47" y="500.15" fill="url(&quot;#SvgjsPattern3873&quot;)" transform="rotate(83.68, 546.47, 590.15)"></rect><path d="M268.43 1312.18a5.6 5.6 0 1 0 11.16 0.96 5.6 5.6 0 1 0-11.16-0.96zM284.37 1313.55a5.6 5.6 0 1 0 11.16 0.97 5.6 5.6 0 1 0-11.16-0.97zM300.31 1314.93a5.6 5.6 0 1 0 11.16 0.96 5.6 5.6 0 1 0-11.16-0.96zM316.25 1316.3a5.6 5.6 0 1 0 11.16 0.97 5.6 5.6 0 1 0-11.16-0.97z" stroke="rgba(41, 40, 44, 0.5)" stroke-width="2.02" stroke-dasharray="2, 2"></path><rect width="161.76" height="161.76" clip-path="url(&quot;#SvgjsClipPath3874&quot;)" x="358" y="466.94" fill="url(&quot;#SvgjsPattern3875&quot;)" transform="rotate(40.59, 438.88, 547.82)"></rect></g><defs><mask id="SvgjsMask3859"><rect width="560" height="1440" fill="#ffffff"></rect></mask><pattern x="0" y="0" width="9.52" height="9.52" patternUnits="userSpaceOnUse" id="SvgjsPattern3861"><path d="M4.76 1L4.76 8.52M1 4.76L8.52 4.76" stroke="rgba(240, 0, 0, 0.5)" fill="none" stroke-width="1.65"></path></pattern><clipPath id="SvgjsClipPath3860"><circle r="66.64" cx="305.81" cy="1086.4"></circle></clipPath><pattern x="0" y="0" width="7.88" height="7.88" patternUnits="userSpaceOnUse" id="SvgjsPattern3863"><path d="M3.94 1L3.94 6.88M1 3.94L6.88 3.94" stroke="rgba(41, 40, 44, 0.5)" fill="none" stroke-width="1.67"></path></pattern><clipPath id="SvgjsClipPath3862"><circle r="47.28" cx="274.18" cy="686.94"></circle></clipPath><pattern x="0" y="0" width="11.94" height="11.94" patternUnits="userSpaceOnUse" id="SvgjsPattern3865"><path d="M0 11.94L5.97 0L11.94 11.94" stroke="rgba(240, 0, 0, 0.5)" fill="none"></path></pattern><clipPath id="SvgjsClipPath3864"><circle r="89.55" cx="357.21" cy="901.08"></circle></clipPath><pattern x="0" y="0" width="9.42" height="9.42" patternUnits="userSpaceOnUse" id="SvgjsPattern3867"><path d="M0 9.42L4.71 0L9.42 9.42" stroke="rgba(240, 0, 0, 0.5)" fill="none"></path></pattern><clipPath id="SvgjsClipPath3866"><circle r="37.68" cx="59.42" cy="825.03"></circle></clipPath><pattern x="0" y="0" width="6.12" height="6.12" patternUnits="userSpaceOnUse" id="SvgjsPattern3869"><path d="M3.06 1L3.06 5.12M1 3.06L5.12 3.06" stroke="rgba(240, 0, 0, 0.5)" fill="none" stroke-width="1.94"></path></pattern><clipPath id="SvgjsClipPath3868"><circle r="39.78" cx="324.72" cy="1368.4"></circle></clipPath><pattern x="0" y="0" width="13.04" height="13.04" patternUnits="userSpaceOnUse" id="SvgjsPattern3871"><path d="M6.52 1L6.52 12.04M1 6.52L12.04 6.52" stroke="rgba(240, 0, 0, 0.5)" fill="none" stroke-width="2.63"></path></pattern><clipPath id="SvgjsClipPath3870"><circle r="91.28" cx="449.4" cy="930.22"></circle></clipPath><pattern x="0" y="0" width="6" height="6" patternUnits="userSpaceOnUse" id="SvgjsPattern3873"><path d="M0 6L3 0L6 6" stroke="rgba(240, 0, 0, 0.5)" fill="none"></path></pattern><clipPath id="SvgjsClipPath3872"><circle r="45" cx="546.47" cy="590.15"></circle></clipPath><pattern x="0" y="0" width="13.48" height="13.48" patternUnits="userSpaceOnUse" id="SvgjsPattern3875"><path d="M6.74 1L6.74 12.48M1 6.74L12.48 6.74" stroke="rgba(240, 0, 0, 0.5)" fill="none" stroke-width="1"></path></pattern><clipPath id="SvgjsClipPath3874"><circle r="40.44" cx="438.88" cy="547.82"></circle></clipPath></defs></svg>