<svg xmlns="http://www.w3.org/2000/svg" version="1.1" xmlns:xlink="http://www.w3.org/1999/xlink" xmlns:svgjs="http://svgjs.dev/svgjs" width="1440" height="560" preserveAspectRatio="none" viewBox="0 0 1440 560"><g mask="url(&quot;#SvgjsMask1011&quot;)" fill="none"><rect width="1440" height="560" x="0" y="0" fill="rgba(255, 255, 255, 1)"></rect><path d="M856.86-29.16C743.5 12.39 790.05 350.23 560.4 352.08 330.75 353.93 120.45 202.06-32.52 200.88" stroke="rgba(220, 38, 38, 1)" stroke-width="2"></path><path d="M1071.65-88.27C878.17-51.67 794.82 432.39 485.36 437.73 175.9 443.07 49.14 309.69-100.93 308.93" stroke="rgba(220, 38, 38, 1)" stroke-width="2"></path><path d="M973.84-50.31C836.34 0.09 896.94 408.14 614.26 412.11 331.59 416.08 77.52 289.35-104.89 288.91" stroke="rgba(220, 38, 38, 1)" stroke-width="2"></path><path d="M504.35-43.46C374.47-13.04 350.94 313.05 127.08 333.84-96.78 354.63-151.81 444.67-250.19 445.84" stroke="rgba(220, 38, 38, 1)" stroke-width="2"></path><path d="M739.96-7.96C663.26 0.17 701.77 153.95 485.61 166.64 269.44 179.33 116.9 396.24-23.1 401.84" stroke="rgba(220, 38, 38, 1)" stroke-width="2"></path></g><defs><mask id="SvgjsMask1011"><rect width="1440" height="560" fill="#ffffff"></rect></mask></defs></svg>