<svg xmlns="http://www.w3.org/2000/svg" version="1.1" xmlns:xlink="http://www.w3.org/1999/xlink" xmlns:svgjs="http://svgjs.dev/svgjs" width="1440" height="560" preserveAspectRatio="none" viewBox="0 0 1440 560"><g mask="url(&quot;#SvgjsMask1004&quot;)" fill="none"><rect width="1440" height="560" x="0" y="0" fill="rgba(255, 255, 255, 1)"></rect><path d="M27.36 140C27.36 89.55 10.64 86.29 0 31.82C-3.04 16.29 -12.96 2.95 0 0C57.04 -12.96 70 0 140 0C210 0 210 0 280 0C350 0 350 0 420 0C490 0 490 0 560 0C614.09 0 618.43 -10.81 668.18 0C688.43 4.4 680.78 30.43 700 30.43C740.44 30.43 742.82 9.71 787.5 0C812.82 -5.5 813.75 0 840 0C910 0 910 0 980 0C1050 0 1050 0 1120 0C1190 0 1190 0 1260 0C1330 0 1330 0 1400 0C1470 0 1502.45 -32.45 1540 0C1572.45 28.04 1552.26 67.48 1540 120.99C1536.22 137.48 1507.92 125.01 1507.92 140C1507.92 175.04 1530.43 179.29 1540 221.05C1546.47 249.29 1540 250.52 1540 280C1540 350 1540 350 1540 420C1540 455 1542.35 455.16 1540 490C1537.62 525.16 1555.12 547.71 1530.54 560C1485.12 582.71 1465.27 560 1400 560C1330 560 1330 560 1260 560C1190 560 1190 560 1120 560C1050 560 1050 560 980 560C910 560 910 560 840 560C770 560 770 560 700 560C648.15 560 599.48 587.02 596.3 560C591.24 517.02 693.52 473.34 683.53 420C675.37 376.42 611.62 366.15 560 366.15C537.21 366.15 544.18 391.88 534.7 420C511.51 488.81 532.58 513.73 494.67 560C475.23 583.73 457.34 560 420 560C350 560 350 560 280 560C210 560 210 560 140 560C70 560 35 595 0 560C-35 525 0 490 0 420C0 350 0 350 0 280C0 224.17 -10.11 220.08 0 168.33C3.57 150.08 27.36 157.81 27.36 140" stroke="rgba(240, 0, 0, 0.5)" stroke-width="2"></path><path d="M280 112C272.66 112 274.25 126.29 274.25 140C274.25 147.06 274.48 153.55 280 153.55C292.35 153.55 310 149.25 310 140C310 128.47 290.54 112 280 112" stroke="rgba(240, 0, 0, 0.5)" stroke-width="2"></path><path d="M420 213.33C400.77 213.33 383.16 252.49 383.16 280C383.16 294.8 401.39 297.95 420 297.95C440.4 297.95 461.18 295.42 461.18 280C461.18 253.11 439.78 213.33 420 213.33" stroke="rgba(240, 0, 0, 0.5)" stroke-width="2"></path><path d="M280 378C257.69 378 225.81 395.83 225.81 420C225.81 450.43 259.29 487.2 280 487.2C296.89 487.2 301 452.75 301 420C301 398.15 295.28 378 280 378" stroke="rgba(240, 0, 0, 0.5)" stroke-width="2"></path><path d="M1120 296.47C1097.11 296.47 1060 367.71 1060 420C1060 446.14 1093.08 453.33 1120 453.33C1137.08 453.33 1148 440.06 1148 420C1148 361.63 1141.11 296.47 1120 296.47" stroke="rgba(240, 0, 0, 0.5)" stroke-width="2"></path><path d="M67.59 140C84.13 77.97 33.34 43.81 56 0C69.55 -26.19 98 0 140 0C188.83 0 219.97 -28.71 237.67 0C263.12 41.29 215.6 72.65 226.3 140C236.77 205.87 251.28 204.35 280 266.45C283.66 274.35 291.05 273.58 291.05 280C291.05 285.6 286.1 285.94 280 290.5C210.58 342.39 206.06 338.11 140 392.9C127.99 402.86 123.85 404.96 123.85 420C123.85 465.17 125.98 468.87 140 513.33C148.06 538.87 168 544.59 168 560C168 567.93 154 560 140 560C70 560 35 595 0 560C-35 525 0 490 0 420C0 350 0 350 0 280C0 245 -14.14 239.29 0 210C19.66 169.29 56.13 182.97 67.59 140" stroke="rgba(240, 0, 0, 0.5)" stroke-width="2"></path><path d="M420 76.77C372.4 52.83 340.67 22.33 340.67 0C340.67 -16.05 380.34 0 420 0C490 0 490 0 560 0C587.58 0 592.78 -12.97 615.15 0C662.78 27.61 649.49 70.45 700 81.16C761.92 94.28 769.04 57.26 840 47.66C909.04 38.32 917.05 60.2 980 43.27C1005.64 36.37 992.21 7.72 1017.19 0C1062.21 -13.91 1068.6 0 1120 0C1190 0 1190 0 1260 0C1323.64 0 1325.38 -4.76 1387.27 0C1395.38 0.62 1395.28 10.77 1400 10.77C1403.17 10.77 1397.75 0.41 1403.04 0C1467.75 -4.98 1496.32 -24.8 1540 0C1564.8 14.09 1560.43 50.53 1540 77.78C1507.93 120.53 1443.18 95.55 1435 140C1424.58 196.66 1486.35 206.34 1502.81 280C1517.64 346.34 1502.46 350.16 1497.58 420C1492.68 490.16 1513.9 516.02 1483.24 560C1465.11 586.02 1441.62 560 1400 560C1330 560 1330 560 1260 560C1190 560 1190 560 1120 560C1050 560 1050 560 980 560C922.72 560 920.03 567.8 865.45 560C850.03 557.8 850.5 552.23 840 540C790.45 482.23 794.34 478.56 745.35 420C724.34 394.88 725.88 392.52 700 372.65C634.73 322.52 593.37 342.57 563.04 280C536.98 226.24 588.4 206.11 587.22 140C586.88 121.26 578.28 117.21 560 110.3C494.67 85.6 482.07 107.98 420 76.77" stroke="rgba(240, 0, 0, 0.5)" stroke-width="2"></path><path d="M1120 221.45C1091.54 221.45 1095.4 250.01 1072.65 280C1025.4 342.29 1027.13 343.67 980 406C974.2 413.67 966.79 412.68 966.79 420C966.79 428.21 970.76 431.71 980 437.07C1047.36 476.15 1058.24 513.8 1120 508.89C1165.57 505.27 1173.9 471.66 1194.67 420C1219.9 357.22 1233.06 335.99 1212 280C1195.72 236.72 1161.22 221.45 1120 221.45" stroke="rgba(240, 0, 0, 0.5)" stroke-width="2"></path><path d="M344.75 420C344.75 378.98 382.73 342.82 420 342.82C456.62 342.82 492.53 379.08 492.53 420C492.53 467.83 456.71 520.33 420 520.33C382.82 520.33 344.75 467.73 344.75 420" stroke="rgba(240, 0, 0, 0.5)" stroke-width="2"></path><path d="M107.82 140C104.35 70.61 111.36 63.68 126 0C127.45 -6.32 133 0 140 0C148.14 0 154.3 -7.21 156.28 0C173.48 62.79 182.38 70.84 178.36 140C174.24 210.84 157.73 280 140 280C122.46 280 111.35 210.61 107.82 140" stroke="rgba(240, 0, 0, 0.5)" stroke-width="2"></path><path d="M560 4.24C553.17 4.24 544.44 1.08 544.44 0C544.44 -1.04 552.22 0 560 0C561.06 0 562.12 -0.66 562.12 0C562.12 1.46 562.01 4.24 560 4.24" stroke="rgba(240, 0, 0, 0.5)" stroke-width="2"></path><path d="M684.44 140C687.68 132.11 691.35 132.87 700 131.88C769.13 123.94 770.12 128.36 840 122.13C910.12 115.88 922.06 137.43 980 106.91C1038 76.36 1019.69 39.85 1071.88 0C1089.69 -13.6 1095.94 0 1120 0C1161.62 0 1173.85 -21 1203.24 0C1243.85 29 1226.75 53.9 1260 100C1277.24 123.9 1279.46 123.73 1304.21 140C1349.46 169.73 1362.53 155.55 1400 192C1434.49 225.55 1438.83 232.43 1448.13 280C1461.11 346.43 1447.59 350.05 1444.55 420C1441.5 490.05 1453.68 504.28 1435.95 560C1431.41 574.28 1417.97 560 1400 560C1336.66 560 1331.08 569.62 1273.33 560C1261.08 557.96 1262.96 549.64 1260 536.67C1246.96 479.64 1241.33 477.69 1241.33 420C1241.33 388.92 1245.79 387.27 1260 359.13C1281.13 317.27 1312 320.66 1312 280C1312 233.2 1301.61 210.69 1260 184.21C1205.61 149.6 1176.78 135.05 1120 157.82C1057.37 182.94 1069.71 218.23 1021.18 280C999.71 307.32 1002.63 309.7 980 336C942.41 379.7 941.35 378.97 900.75 420C871.35 449.72 868.29 477.5 840 477.5C815.24 477.5 819.05 447.25 794.65 420C749.05 369.09 750.59 366.72 700 321.18C672.83 296.72 641.72 310.17 639.13 280C633.94 219.58 657.25 206.17 684.44 140" stroke="rgba(240, 0, 0, 0.5)" stroke-width="2"></path><path d="M1540 34.57C1519.63 34.57 1479.13 9.25 1479.13 0C1479.13 -8.04 1520.59 -11.02 1540 0C1551.02 6.26 1550.06 34.57 1540 34.57" stroke="rgba(240, 0, 0, 0.5)" stroke-width="2"></path><path d="M0 251.67C58.41 251.67 126.8 240.69 140 280C155.07 324.86 90.28 346.39 56.54 420C26.11 486.39 37.86 495.15 11.67 560C9.59 565.15 0.45 565.39 0 560C-5.39 495.39 0 490 0 420C0 350 0 350 0 280C0 265.84 -11.59 251.67 0 251.67" stroke="rgba(240, 0, 0, 0.5)" stroke-width="2"></path><path d="M388.5 420C388.5 402.83 404.4 387.69 420 387.69C435.33 387.69 450.36 402.87 450.36 420C450.36 440.02 435.36 462 420 462C404.43 462 388.5 439.98 388.5 420" stroke="rgba(240, 0, 0, 0.5)" stroke-width="2"></path><path d="M945 560C945 548.83 957.57 522.44 980 522.44C1034.3 522.44 1098.46 550.39 1098.46 560C1098.46 569.17 1039.23 560 980 560C962.5 560 945 567.61 945 560" stroke="rgba(240, 0, 0, 0.5)" stroke-width="2"></path></g><defs><mask id="SvgjsMask1004"><rect width="1440" height="560" fill="#ffffff"></rect></mask></defs></svg>