<svg xmlns="http://www.w3.org/2000/svg" version="1.1" xmlns:xlink="http://www.w3.org/1999/xlink" xmlns:svgjs="http://svgjs.dev/svgjs" width="2880" height="1440" preserveAspectRatio="none" viewBox="0 0 2880 1440"><g mask="url(&quot;#SvgjsMask1165&quot;)" fill="none"><rect width="2880" height="1440" x="0" y="0" fill="rgba(255, 255, 255, 1)"></rect><path d="M -917.3921069453623,846 C -802.19,727.8 -571.79,221.2 -341.39210694536234,255 C -110.99,288.8 4.21,1044 234.60789305463766,1015 C 465.01,986 580.21,96.4 810.6078930546377,110 C 1041.01,123.6 1156.21,966 1386.6078930546378,1083 C 1617.01,1200 1732.21,691.4 1962.6078930546378,695 C 2193.01,698.6 2355.13,1227.8 2538.6078930546378,1101 C 2722.09,974.2 2811.72,269 2880,61" stroke="rgba(41, 37, 36, 0.5)" stroke-width="2"></path><path d="M -1066.1608162995235,396 C -950.96,574.8 -720.56,1303.4 -490.1608162995235,1290 C -259.76,1276.6 -144.56,330 85.8391837004765,329 C 316.24,328 431.44,1304.6 661.8391837004765,1285 C 892.24,1265.4 1007.44,310.6 1237.8391837004765,231 C 1468.24,151.4 1583.44,921 1813.8391837004765,887 C 2044.24,853 2176.61,33.2 2389.8391837004765,61 C 2603.07,88.8 2781.97,833 2880,1026" stroke="rgba(220, 38, 38, 0.5)" stroke-width="2"></path><path d="M -142.0943967209979,1435 C -26.89,1202.4 203.51,367.4 433.9056032790021,272 C 664.31,176.6 779.51,942.4 1009.9056032790021,958 C 1240.31,973.6 1355.51,363 1585.9056032790022,350 C 1816.31,337 1931.51,872.4 2161.905603279002,893 C 2392.31,913.6 2507.51,373.8 2737.905603279002,453 C 2968.31,532.2 3285.49,1372.6 3313.905603279002,1289 C 3342.32,1205.4 2966.78,285.8 2880,35" stroke="rgba(220, 38, 38, 0.5)" stroke-width="2"></path><path d="M -327.89210669536794,452 C -212.69,505.8 17.71,758 248.10789330463209,721 C 478.51,684 593.71,224 824.1078933046321,267 C 1054.51,310 1169.71,892 1400.1078933046322,936 C 1630.51,980 1745.71,444.2 1976.1078933046322,487 C 2206.51,529.8 2321.71,1180.2 2552.107893304632,1150 C 2782.51,1119.8 3062.53,294.6 3128.107893304632,336 C 3193.69,377.4 2929.62,1152.8 2880,1357" stroke="rgba(41, 37, 36, 0.5)" stroke-width="2"></path></g><defs><mask id="SvgjsMask1165"><rect width="2880" height="1440" fill="#ffffff"></rect></mask></defs></svg>